<?xml version="1.0" encoding="UTF-8" standalone="no"?>
<!DOCTYPE svg PUBLIC "-//W3C//DTD SVG 1.1//EN"
 "http://www.w3.org/Graphics/SVG/1.1/DTD/svg11.dtd">
<!-- Generated by graphviz version 2.38.0 (20140413.2041)
 -->
<!-- Title: Tree Pages: 1 -->
<svg width="791pt" height="552pt"
 viewBox="0.00 0.00 791.00 552.00" xmlns="http://www.w3.org/2000/svg" xmlns:xlink="http://www.w3.org/1999/xlink">
<g id="graph0" class="graph" transform="scale(1 1) rotate(0) translate(4 548)">
<title>Tree</title>
<polygon fill="white" stroke="none" points="-4,4 -4,-548 787,-548 787,4 -4,4"/>
<!-- 0 -->
<g id="node1" class="node"><title>0</title>
<path fill="#9de539" fill-opacity="0.200000" stroke="black" d="M504,-544C504,-544 368,-544 368,-544 362,-544 356,-538 356,-532 356,-532 356,-473 356,-473 356,-467 362,-461 368,-461 368,-461 504,-461 504,-461 510,-461 516,-467 516,-473 516,-473 516,-532 516,-532 516,-538 510,-544 504,-544"/>
<text text-anchor="middle" x="436" y="-528.8" font-family="Helvetica,sans-Serif" font-size="14.00">age &lt;= 30.5</text>
<text text-anchor="middle" x="436" y="-513.8" font-family="Helvetica,sans-Serif" font-size="14.00">gini = 0.79</text>
<text text-anchor="middle" x="436" y="-498.8" font-family="Helvetica,sans-Serif" font-size="14.00">samples = 18</text>
<text text-anchor="middle" x="436" y="-483.8" font-family="Helvetica,sans-Serif" font-size="14.00">value = [3, 6, 3, 3, 2, 1]</text>
<text text-anchor="middle" x="436" y="-468.8" font-family="Helvetica,sans-Serif" font-size="14.00">class = Classical</text>
</g>
<!-- 1 -->
<g id="node2" class="node"><title>1</title>
<path fill="none" stroke="black" d="M415,-425C415,-425 279,-425 279,-425 273,-425 267,-419 267,-413 267,-413 267,-354 267,-354 267,-348 273,-342 279,-342 279,-342 415,-342 415,-342 421,-342 427,-348 427,-354 427,-354 427,-413 427,-413 427,-419 421,-425 415,-425"/>
<text text-anchor="middle" x="347" y="-409.8" font-family="Helvetica,sans-Serif" font-size="14.00">gender &lt;= 0.5</text>
<text text-anchor="middle" x="347" y="-394.8" font-family="Helvetica,sans-Serif" font-size="14.00">gini = 0.778</text>
<text text-anchor="middle" x="347" y="-379.8" font-family="Helvetica,sans-Serif" font-size="14.00">samples = 12</text>
<text text-anchor="middle" x="347" y="-364.8" font-family="Helvetica,sans-Serif" font-size="14.00">value = [3, 0, 3, 3, 2, 1]</text>
<text text-anchor="middle" x="347" y="-349.8" font-family="Helvetica,sans-Serif" font-size="14.00">class = Acoustic</text>
</g>
<!-- 0&#45;&gt;1 -->
<g id="edge1" class="edge"><title>0&#45;&gt;1</title>
<path fill="none" stroke="black" d="M405.122,-460.907C398.288,-451.923 390.979,-442.315 383.931,-433.05"/>
<polygon fill="black" stroke="black" points="386.664,-430.861 377.824,-425.021 381.092,-435.099 386.664,-430.861"/>
<text text-anchor="middle" x="374.456" y="-446.093" font-family="Helvetica,sans-Serif" font-size="14.00">True</text>
</g>
<!-- 10 -->
<g id="node11" class="node"><title>10</title>
<path fill="#9de539" stroke="black" d="M593,-417.5C593,-417.5 457,-417.5 457,-417.5 451,-417.5 445,-411.5 445,-405.5 445,-405.5 445,-361.5 445,-361.5 445,-355.5 451,-349.5 457,-349.5 457,-349.5 593,-349.5 593,-349.5 599,-349.5 605,-355.5 605,-361.5 605,-361.5 605,-405.5 605,-405.5 605,-411.5 599,-417.5 593,-417.5"/>
<text text-anchor="middle" x="525" y="-402.3" font-family="Helvetica,sans-Serif" font-size="14.00">gini = 0.0</text>
<text text-anchor="middle" x="525" y="-387.3" font-family="Helvetica,sans-Serif" font-size="14.00">samples = 6</text>
<text text-anchor="middle" x="525" y="-372.3" font-family="Helvetica,sans-Serif" font-size="14.00">value = [0, 6, 0, 0, 0, 0]</text>
<text text-anchor="middle" x="525" y="-357.3" font-family="Helvetica,sans-Serif" font-size="14.00">class = Classical</text>
</g>
<!-- 0&#45;&gt;10 -->
<g id="edge10" class="edge"><title>0&#45;&gt;10</title>
<path fill="none" stroke="black" d="M466.878,-460.907C475.524,-449.542 484.928,-437.178 493.604,-425.774"/>
<polygon fill="black" stroke="black" points="496.502,-427.745 499.77,-417.667 490.93,-423.507 496.502,-427.745"/>
<text text-anchor="middle" x="503.138" y="-438.739" font-family="Helvetica,sans-Serif" font-size="14.00">False</text>
</g>
<!-- 2 -->
<g id="node3" class="node"><title>2</title>
<path fill="none" stroke="black" d="M326,-306C326,-306 190,-306 190,-306 184,-306 178,-300 178,-294 178,-294 178,-235 178,-235 178,-229 184,-223 190,-223 190,-223 326,-223 326,-223 332,-223 338,-229 338,-235 338,-235 338,-294 338,-294 338,-300 332,-306 326,-306"/>
<text text-anchor="middle" x="258" y="-290.8" font-family="Helvetica,sans-Serif" font-size="14.00">age &lt;= 25.5</text>
<text text-anchor="middle" x="258" y="-275.8" font-family="Helvetica,sans-Serif" font-size="14.00">gini = 0.5</text>
<text text-anchor="middle" x="258" y="-260.8" font-family="Helvetica,sans-Serif" font-size="14.00">samples = 6</text>
<text text-anchor="middle" x="258" y="-245.8" font-family="Helvetica,sans-Serif" font-size="14.00">value = [3, 0, 3, 0, 0, 0]</text>
<text text-anchor="middle" x="258" y="-230.8" font-family="Helvetica,sans-Serif" font-size="14.00">class = Acoustic</text>
</g>
<!-- 1&#45;&gt;2 -->
<g id="edge2" class="edge"><title>1&#45;&gt;2</title>
<path fill="none" stroke="black" d="M316.122,-341.907C309.288,-332.923 301.979,-323.315 294.931,-314.05"/>
<polygon fill="black" stroke="black" points="297.664,-311.861 288.824,-306.021 292.092,-316.099 297.664,-311.861"/>
</g>
<!-- 5 -->
<g id="node6" class="node"><title>5</title>
<path fill="#399de5" fill-opacity="0.250980" stroke="black" d="M504,-306C504,-306 368,-306 368,-306 362,-306 356,-300 356,-294 356,-294 356,-235 356,-235 356,-229 362,-223 368,-223 368,-223 504,-223 504,-223 510,-223 516,-229 516,-235 516,-235 516,-294 516,-294 516,-300 510,-306 504,-306"/>
<text text-anchor="middle" x="436" y="-290.8" font-family="Helvetica,sans-Serif" font-size="14.00">age &lt;= 25.5</text>
<text text-anchor="middle" x="436" y="-275.8" font-family="Helvetica,sans-Serif" font-size="14.00">gini = 0.611</text>
<text text-anchor="middle" x="436" y="-260.8" font-family="Helvetica,sans-Serif" font-size="14.00">samples = 6</text>
<text text-anchor="middle" x="436" y="-245.8" font-family="Helvetica,sans-Serif" font-size="14.00">value = [0, 0, 0, 3, 2, 1]</text>
<text text-anchor="middle" x="436" y="-230.8" font-family="Helvetica,sans-Serif" font-size="14.00">class = HipHop</text>
</g>
<!-- 1&#45;&gt;5 -->
<g id="edge5" class="edge"><title>1&#45;&gt;5</title>
<path fill="none" stroke="black" d="M377.878,-341.907C384.712,-332.923 392.021,-323.315 399.069,-314.05"/>
<polygon fill="black" stroke="black" points="401.908,-316.099 405.176,-306.021 396.336,-311.861 401.908,-316.099"/>
</g>
<!-- 3 -->
<g id="node4" class="node"><title>3</title>
<path fill="#39e581" stroke="black" d="M148,-179.5C148,-179.5 12,-179.5 12,-179.5 6,-179.5 0,-173.5 0,-167.5 0,-167.5 0,-123.5 0,-123.5 0,-117.5 6,-111.5 12,-111.5 12,-111.5 148,-111.5 148,-111.5 154,-111.5 160,-117.5 160,-123.5 160,-123.5 160,-167.5 160,-167.5 160,-173.5 154,-179.5 148,-179.5"/>
<text text-anchor="middle" x="80" y="-164.3" font-family="Helvetica,sans-Serif" font-size="14.00">gini = 0.0</text>
<text text-anchor="middle" x="80" y="-149.3" font-family="Helvetica,sans-Serif" font-size="14.00">samples = 3</text>
<text text-anchor="middle" x="80" y="-134.3" font-family="Helvetica,sans-Serif" font-size="14.00">value = [0, 0, 3, 0, 0, 0]</text>
<text text-anchor="middle" x="80" y="-119.3" font-family="Helvetica,sans-Serif" font-size="14.00">class = Dance</text>
</g>
<!-- 2&#45;&gt;3 -->
<g id="edge3" class="edge"><title>2&#45;&gt;3</title>
<path fill="none" stroke="black" d="M196.244,-222.907C177.778,-210.769 157.579,-197.493 139.276,-185.462"/>
<polygon fill="black" stroke="black" points="140.738,-182.235 130.459,-179.667 136.893,-188.084 140.738,-182.235"/>
</g>
<!-- 4 -->
<g id="node5" class="node"><title>4</title>
<path fill="#e58139" stroke="black" d="M326,-179.5C326,-179.5 190,-179.5 190,-179.5 184,-179.5 178,-173.5 178,-167.5 178,-167.5 178,-123.5 178,-123.5 178,-117.5 184,-111.5 190,-111.5 190,-111.5 326,-111.5 326,-111.5 332,-111.5 338,-117.5 338,-123.5 338,-123.5 338,-167.5 338,-167.5 338,-173.5 332,-179.5 326,-179.5"/>
<text text-anchor="middle" x="258" y="-164.3" font-family="Helvetica,sans-Serif" font-size="14.00">gini = 0.0</text>
<text text-anchor="middle" x="258" y="-149.3" font-family="Helvetica,sans-Serif" font-size="14.00">samples = 3</text>
<text text-anchor="middle" x="258" y="-134.3" font-family="Helvetica,sans-Serif" font-size="14.00">value = [3, 0, 0, 0, 0, 0]</text>
<text text-anchor="middle" x="258" y="-119.3" font-family="Helvetica,sans-Serif" font-size="14.00">class = Acoustic</text>
</g>
<!-- 2&#45;&gt;4 -->
<g id="edge4" class="edge"><title>2&#45;&gt;4</title>
<path fill="none" stroke="black" d="M258,-222.907C258,-212.204 258,-200.615 258,-189.776"/>
<polygon fill="black" stroke="black" points="261.5,-189.667 258,-179.667 254.5,-189.667 261.5,-189.667"/>
</g>
<!-- 6 -->
<g id="node7" class="node"><title>6</title>
<path fill="#399de5" stroke="black" d="M504,-179.5C504,-179.5 368,-179.5 368,-179.5 362,-179.5 356,-173.5 356,-167.5 356,-167.5 356,-123.5 356,-123.5 356,-117.5 362,-111.5 368,-111.5 368,-111.5 504,-111.5 504,-111.5 510,-111.5 516,-117.5 516,-123.5 516,-123.5 516,-167.5 516,-167.5 516,-173.5 510,-179.5 504,-179.5"/>
<text text-anchor="middle" x="436" y="-164.3" font-family="Helvetica,sans-Serif" font-size="14.00">gini = 0.0</text>
<text text-anchor="middle" x="436" y="-149.3" font-family="Helvetica,sans-Serif" font-size="14.00">samples = 3</text>
<text text-anchor="middle" x="436" y="-134.3" font-family="Helvetica,sans-Serif" font-size="14.00">value = [0, 0, 0, 3, 0, 0]</text>
<text text-anchor="middle" x="436" y="-119.3" font-family="Helvetica,sans-Serif" font-size="14.00">class = HipHop</text>
</g>
<!-- 5&#45;&gt;6 -->
<g id="edge6" class="edge"><title>5&#45;&gt;6</title>
<path fill="none" stroke="black" d="M436,-222.907C436,-212.204 436,-200.615 436,-189.776"/>
<polygon fill="black" stroke="black" points="439.5,-189.667 436,-179.667 432.5,-189.667 439.5,-189.667"/>
</g>
<!-- 7 -->
<g id="node8" class="node"><title>7</title>
<path fill="#8139e5" fill-opacity="0.498039" stroke="black" d="M682,-187C682,-187 546,-187 546,-187 540,-187 534,-181 534,-175 534,-175 534,-116 534,-116 534,-110 540,-104 546,-104 546,-104 682,-104 682,-104 688,-104 694,-110 694,-116 694,-116 694,-175 694,-175 694,-181 688,-187 682,-187"/>
<text text-anchor="middle" x="614" y="-171.8" font-family="Helvetica,sans-Serif" font-size="14.00">age &lt;= 27.5</text>
<text text-anchor="middle" x="614" y="-156.8" font-family="Helvetica,sans-Serif" font-size="14.00">gini = 0.444</text>
<text text-anchor="middle" x="614" y="-141.8" font-family="Helvetica,sans-Serif" font-size="14.00">samples = 3</text>
<text text-anchor="middle" x="614" y="-126.8" font-family="Helvetica,sans-Serif" font-size="14.00">value = [0, 0, 0, 0, 2, 1]</text>
<text text-anchor="middle" x="614" y="-111.8" font-family="Helvetica,sans-Serif" font-size="14.00">class = Jazz</text>
</g>
<!-- 5&#45;&gt;7 -->
<g id="edge7" class="edge"><title>5&#45;&gt;7</title>
<path fill="none" stroke="black" d="M497.756,-222.907C512.667,-213.106 528.708,-202.563 543.968,-192.533"/>
<polygon fill="black" stroke="black" points="545.919,-195.438 552.353,-187.021 542.074,-189.589 545.919,-195.438"/>
</g>
<!-- 8 -->
<g id="node9" class="node"><title>8</title>
<path fill="#e5399d" stroke="black" d="M593,-68C593,-68 457,-68 457,-68 451,-68 445,-62 445,-56 445,-56 445,-12 445,-12 445,-6 451,-0 457,-0 457,-0 593,-0 593,-0 599,-0 605,-6 605,-12 605,-12 605,-56 605,-56 605,-62 599,-68 593,-68"/>
<text text-anchor="middle" x="525" y="-52.8" font-family="Helvetica,sans-Serif" font-size="14.00">gini = 0.0</text>
<text text-anchor="middle" x="525" y="-37.8" font-family="Helvetica,sans-Serif" font-size="14.00">samples = 1</text>
<text text-anchor="middle" x="525" y="-22.8" font-family="Helvetica,sans-Serif" font-size="14.00">value = [0, 0, 0, 0, 0, 1]</text>
<text text-anchor="middle" x="525" y="-7.8" font-family="Helvetica,sans-Serif" font-size="14.00">class = jazz</text>
</g>
<!-- 7&#45;&gt;8 -->
<g id="edge8" class="edge"><title>7&#45;&gt;8</title>
<path fill="none" stroke="black" d="M580.86,-103.726C573.521,-94.6966 565.74,-85.1235 558.391,-76.0816"/>
<polygon fill="black" stroke="black" points="561.089,-73.8521 552.065,-68.2996 555.657,-78.2672 561.089,-73.8521"/>
</g>
<!-- 9 -->
<g id="node10" class="node"><title>9</title>
<path fill="#8139e5" stroke="black" d="M771,-68C771,-68 635,-68 635,-68 629,-68 623,-62 623,-56 623,-56 623,-12 623,-12 623,-6 629,-0 635,-0 635,-0 771,-0 771,-0 777,-0 783,-6 783,-12 783,-12 783,-56 783,-56 783,-62 777,-68 771,-68"/>
<text text-anchor="middle" x="703" y="-52.8" font-family="Helvetica,sans-Serif" font-size="14.00">gini = 0.0</text>
<text text-anchor="middle" x="703" y="-37.8" font-family="Helvetica,sans-Serif" font-size="14.00">samples = 2</text>
<text text-anchor="middle" x="703" y="-22.8" font-family="Helvetica,sans-Serif" font-size="14.00">value = [0, 0, 0, 0, 2, 0]</text>
<text text-anchor="middle" x="703" y="-7.8" font-family="Helvetica,sans-Serif" font-size="14.00">class = Jazz</text>
</g>
<!-- 7&#45;&gt;9 -->
<g id="edge9" class="edge"><title>7&#45;&gt;9</title>
<path fill="none" stroke="black" d="M647.14,-103.726C654.479,-94.6966 662.26,-85.1235 669.609,-76.0816"/>
<polygon fill="black" stroke="black" points="672.343,-78.2672 675.935,-68.2996 666.911,-73.8521 672.343,-78.2672"/>
</g>
</g>
</svg>
